Simulation
nRows=44
nColumns=15
endheader
time  TH_x TH_y TH_z SC_y  SC_z  SC_x  AC_y  AC_z  AC_x  GH_y  GH_z  GH_yy  EL_x  PS_y
0.0  0.000000  0.000000  0.000000  -34.78724551837136  14.600635263652913  14.93756404583168  37.015132300006115  -23.620108367024535  28.83928351394626  -123.80138664312462  4.930854699244582  143.42298574515982  24.856041116566075  0.000000
0.015  0.000000  0.000000  0.000000  -34.603376622887545  14.239020710909543  14.823744894830925  37.54296899261412  -24.228075638677804  28.969623347458924  -139.51304799347287  5.189091489712074  158.79891815531556  25.301961388440326  0.000000
0.03  0.000000  0.000000  0.000000  -34.039296673873025  14.184218610265152  14.857323970809192  37.66825476059177  -24.30206490655253  28.975304021695987  -152.12310826837177  5.729786286520493  171.01125146126714  25.599609406520425  0.000000
0.045  0.000000  0.000000  0.000000  -33.8272484340077  14.003742707702408  14.613098543628668  37.55537446159543  -24.216402072294727  28.932683661608486  -161.92805930198213  6.02985061971025  -179.63772446151222  25.807500711065245  0.000000
0.06  0.000000  0.000000  0.000000  -33.72650803434262  13.96949199784253  14.412217799899055  37.45900212852605  -24.14953735877739  28.91955516512597  -169.26343136031642  6.011236576751589  -172.68497736130587  25.968188989288425  0.000000
0.075  0.000000  0.000000  0.000000  -33.77495071479008  14.03723173533943  14.404229393796726  37.33243215578357  -24.166168740560355  28.816840598173403  -175.56053479485232  5.797876849067264  -166.8916004487962  26.056630223648177  0.000000
0.09  0.000000  0.000000  0.000000  -33.934384018986705  14.17859196468774  14.506561893789808  37.25246857202702  -24.250006543846265  28.70004516099705  178.44155279085405  5.443122249629801  -161.45790913717977  26.099369189531657  0.000000
0.105  0.000000  0.000000  0.000000  -34.106584282279755  14.372556232656066  14.709052449932788  37.16632786846969  -24.394000561462974  28.54756725459873  172.55082524557554  5.031655116604545  -156.18786423364642  26.102404577347574  0.000000
0.12  0.000000  0.000000  0.000000  -34.280181638834904  14.569715834376035  14.94684716511549  37.128976066590944  -24.562892119397663  28.41154038614744  166.4006652246154  4.637621797512358  -150.64589948962492  26.073434543493057  0.000000
0.135  0.000000  0.000000  0.000000  -34.38535047531606  14.730497189193839  15.174528278231062  37.09957025322095  -24.714385550655653  28.283464821729627  160.22366444075166  4.300417513840606  -145.0105767333893  26.021275756155443  0.000000
0.15  0.000000  0.000000  0.000000  -34.43610237638992  14.868581355778316  15.385879961826037  37.11950653251855  -24.871312501190776  28.206891488139757  154.3052398768055  4.056032121822109  -139.53281505251536  25.94794209718705  0.000000
0.16499999999999998  0.000000  0.000000  0.000000  -34.40289654294223  14.952422008325566  15.564735400091097  37.14487855216235  -24.991121017359166  28.14247479081861  149.05140435582348  3.9013639915473313  -134.58645828779922  25.854981522686206  0.000000
0.18  0.000000  0.000000  0.000000  -34.31158538851877  15.006286590017389  15.722061615960888  37.21898422733689  -25.109127928886892  28.133139156822686  144.62327119399853  3.79788157066388  -130.31742094725394  25.74093246171033  0.000000
0.195  0.000000  0.000000  0.000000  -34.13815792417777  15.017956479563912  15.843803379375542  37.30182042275577  -25.19860813019034  28.14691774039339  140.60365026845827  3.680672954053827  -126.29571629608094  25.601245039476943  0.000000
0.21  0.000000  0.000000  0.000000  -33.90536678306592  14.986355742659258  15.938701469379417  37.42728509683302  -25.26745189158684  28.21213876122718  135.99168351774216  3.4737080419244433  -121.51574021397789  25.4298332922037  0.000000
0.22499999999999998  0.000000  0.000000  0.000000  -33.57666454291097  14.918209327537019  15.9858524332365  37.54014475684432  -25.302314411540596  28.289562505270606  128.4010003255366  3.106574150789434  -113.60814809529914  25.221647283447147  0.000000
0.24  0.000000  0.000000  0.000000  -33.21723426366051  14.881730629450201  16.07295527237559  37.637546763321026  -25.363396116587932  28.346958430994878  114.1388702193366  2.653361982415808  -99.00837900988198  24.963233756621914  0.000000
0.255  0.000000  0.000000  0.000000  -32.803835758332575  15.000308809827999  16.315501571701056  37.59458467847014  -25.551327586281623  28.236837911734757  88.35456529144903  2.420187285819247  -73.13958392378676  24.650630543292557  0.000000
0.27  0.000000  0.000000  0.000000  -32.33473904144593  15.348400251646252  16.75387680028001  37.383484993019586  -25.90391644751568  27.945451064217274  57.08292462050959  2.9141149356689335  -42.13215663011373  24.286891922179056  0.000000
0.285  0.000000  0.000000  0.000000  -31.674910850127407  16.090513791023156  17.591361014005784  36.7196255226922  -26.66096522512143  27.077167752877315  37.61661685462016  4.385754499383317  -23.472133025403018  23.9474859242173  0.000000
0.3  0.000000  0.000000  0.000000  -30.551966981928288  17.445637930849443  18.82680174141248  35.26476541592833  -27.99405225618009  25.409491204954737  29.466067849846088  6.584196704033829  -16.611823137252724  23.73515275969077  0.000000
0.315  0.000000  0.000000  0.000000  -28.303281094912005  19.1193928796002  20.009060713268106  32.569956727374  -29.7734758878953  22.34541347132464  27.65643608395554  9.738459548185036  -16.3946333260532  23.891251487098597  0.000000
0.32999999999999996  0.000000  0.000000  0.000000  -24.59267996295661  20.94079274551979  20.759013804323356  28.417348141251463  -31.968929841271642  17.83057148393747  27.662623652692243  13.721835469005175  -18.12895528947035  24.62697975528005  0.000000
0.345  0.000000  0.000000  0.000000  -19.03082546406661  22.73553314436785  21.379434071711106  22.171751966105504  -34.43992178511591  10.853441847373032  28.766153605766934  18.073204487972028  -21.05275347284664  25.842972982624126  0.000000
0.36  0.000000  0.000000  0.000000  -11.06296849064833  23.842914540532792  22.04673850619422  13.730240249418685  -36.29908262549375  1.345971936446293  29.049478985008093  22.254947520683494  -23.034316945151375  26.46252511059992  0.000000
0.375  0.000000  0.000000  0.000000  -2.6762604901860483  24.34815712196721  21.844931580999788  8.015101169227778  -36.88931472937278  -4.329282072327565  24.02263451802282  24.57738167230305  -19.021033324390096  25.288021759214512  0.000000
0.39  0.000000  0.000000  0.000000  2.164746261081437  23.978565886647043  21.916076195772916  7.1832761739521365  -37.265468154319905  -4.987487690175832  16.682356176409595  25.30458805962361  -11.654802519079743  23.686049888394013  0.000000
0.40499999999999997  0.000000  0.000000  0.000000  3.1044636378337076  23.588305461948345  22.89561626330405  7.475397594704247  -37.50433230612884  -4.953991278073989  13.45489505063928  24.910371393224924  -7.765895441841751  23.0545092639701  0.000000
0.42  0.000000  0.000000  0.000000  2.661140283514826  24.263911653518534  23.80715835080175  7.716631210660867  -38.34191078230718  -4.779407820040899  13.165599938452766  23.919160023451937  -6.67299296637458  22.910507469986044  0.000000
0.435  0.000000  0.000000  0.000000  2.0181482370701422  24.818097645822185  24.436528099383565  8.088885750387819  -38.85710259273625  -4.37481699070385  14.129679317470526  22.9078478801048  -6.414875320602343  22.93300927329021  0.000000
0.44999999999999996  0.000000  0.000000  0.000000  1.4313785422081142  25.075369361750074  24.808433965307103  8.405594818449188  -39.275911090368794  -4.12167617313487  16.599381638710867  21.892115961544988  -7.2840683007250275  23.05113967935394  0.000000
0.46499999999999997  0.000000  0.000000  0.000000  1.2274123216003652  25.295884832797196  24.925432427912565  8.21234627060268  -39.422424782264315  -4.294973982034564  20.97128924613622  20.540020488163567  -9.548069227038594  23.17718316622733  0.000000
0.48  0.000000  0.000000  0.000000  1.4715243533527036  25.035554263773093  24.780478131759125  7.656013467333545  -39.35892461308154  -4.994976582440403  27.679299030887062  18.906779810752024  -13.5116259325308  23.473698341411048  0.000000
0.495  0.000000  0.000000  0.000000  2.05500735667668  24.16698692957256  24.466197679199507  6.971571474082944  -38.70674152917772  -5.954756226365191  37.79240842384711  16.851392806487514  -20.333512686145298  23.92979251826872  0.000000
0.51  0.000000  0.000000  0.000000  3.5253547897203505  22.59863642202314  23.616339723120088  6.296861700795337  -37.582489949193814  -6.962827425748448  52.893422500450455  14.8986888856325  -31.61280534482566  24.473089081566826  0.000000
0.525  0.000000  0.000000  0.000000  5.8503336154013335  19.807863979701978  22.068842138622042  6.090073404484247  -36.07671375672123  -7.16985813082457  70.16824277586365  13.753225381839304  -44.337836130524366  25.167425395781844  0.000000
0.54  0.000000  0.000000  0.000000  7.775073423827224  16.200554520983605  19.96589233773859  6.080361644328171  -35.12461909051515  -6.600357841729524  87.67499152167893  13.405620939985187  -56.428232095988484  26.24006710756969  0.000000
0.5549999999999999  0.000000  0.000000  0.000000  8.811805989136339  12.352397191889352  18.161018942573545  7.373480334400997  -34.17871765630262  -4.912740239133141  104.44644103069899  13.47233969414044  -67.31023119096739  27.523177814323375  0.000000
0.57  0.000000  0.000000  0.000000  10.149753490718371  9.359802632938308  16.95540837622553  9.421073272181186  -33.34836509708681  -2.418860333463184  120.17364469331623  13.750601384189437  -76.81107436574986  28.82060670838379  0.000000
0.585  0.000000  0.000000  0.000000  11.905678895001689  7.99433408902028  16.097176305739044  11.114007764580656  -33.46513851052113  0.06987532271912386  131.67131711682816  14.41850387278183  -81.91538101533544  30.7293297493145  0.000000
0.6  0.000000  0.000000  0.000000  11.348390882975986  7.158330375421823  16.562031137386615  13.718611956631042  -33.21779617415466  2.327029629701884  142.35823441750387  15.54819417744438  -84.76737713732669  34.677058662561016  0.000000
0.615  0.000000  0.000000  0.000000  10.273612145382277  7.856369497975693  18.96095225726688  18.414040497397224  -34.991315386149914  7.373021108407747  151.01651437690495  14.402212594593166  -85.5805396087309  37.18058538378076  0.000000
0.63  0.000000  0.000000  0.000000  14.299951003487257  8.090979050066574  28.381561089139094  30.58673420365455  -36.53465956649345  14.61219658109035  147.3764812959464  11.517699937969343  -80.7647087492246  33.534685622232956  0.000000
0.645  0.000000  0.000000  0.000000  7.341754387618665  16.005228409442008  46.95522588545722  53.85092729316854  -32.63896163722614  17.552245371645153  135.4520787230731  21.327937767105315  -79.49339151253388  35.941071508136844  0.000000
